<svg width="63" height="67" viewBox="0 0 63 67" fill="none" xmlns="http://www.w3.org/2000/svg">
<path d="M49.4 56.8C49.5 58.4 49.3 59.6 48.3 60.6C47.3 61.6 46.1 61.9 44.8 61.8C44.8 62.1 44.7 62.3 44.7 62.5C44.5 64.7 43 66.2 40.7 66.2C35.8 66.2 30.8 66.2 25.9 66.2C18.7 66.2 11.5 66.2 4.3 66.2C1.5 66.2 0 64.6 0 62C0 44.2 0 26.5 0 8.8C0 6.3 1.5 4.7 4.1 4.7C4.3 4.7 4.5 4.7 4.7 4.7C4.7 4.4 4.7 4.1 4.7 3.8C4.9 1.5 6.5 0 8.7 0C11.7 0 14.6 0 17.6 0C23.7 0 29.9 0 36 0C37.1 0 38.1 0.3 38.9 1.1C42 4.2 45.1 7.3 48.2 10.4C49.1 11.3 49.4 12.3 49.4 13.6C49.4 19.5 49.4 25.3 49.4 31.2C49.4 31.7 49.5 32.2 49.8 32.6C52.3 37.2 52.3 41.8 49.7 46.4C49.4 46.9 49.4 47.2 49.9 47.6C50.6 48.3 51.3 49 52 49.7C52.2 49.9 52.5 49.9 52.7 50C53.3 50.2 53.9 50.3 54.3 50.7C56.9 53.2 59.4 55.7 61.9 58.3C62.9 59.3 62.8 60.4 61.8 61.4C61 62.2 60.1 63.1 59.3 63.9C58.3 64.9 57.3 64.9 56.3 63.9C54.2 61.8 52.2 59.8 50.1 57.7C49.9 57.4 49.7 57.2 49.4 56.8ZM23.7 37.2C23.5 37.2 23.2 37.2 23 37.2C21.5 37.2 20 37.2 18.5 37.2C18 37.2 17.7 37 17.7 36.5C17.7 36 18.1 35.9 18.5 35.8C18.7 35.8 18.8 35.8 19 35.8C20.6 35.8 22.1 35.8 23.7 35.8C23.9 35.8 24.2 35.7 24.3 35.6C24.8 34.5 25.2 33.4 25.6 32.2C25.3 32.2 25.1 32.2 24.8 32.2C22.7 32.2 20.7 32.2 18.6 32.2C17.9 32.2 17.4 31.7 17.8 31.2C18 31 18.4 30.8 18.7 30.8C21.2 30.8 23.7 30.8 26.2 30.8C26.6 30.8 26.9 30.6 27.2 30.3C28.1 29.4 29 28.6 30 27.8C30.2 27.6 30.5 27.5 30.9 27.2C30.5 27.2 30.3 27.1 30.2 27.1C26.8 27.1 23.4 27.1 19.9 27.1C19.4 27.1 18.9 27.2 18.5 27.1C18.3 27 18 26.7 17.9 26.4C17.9 26.2 18.2 25.9 18.5 25.8C18.6 25.7 18.9 25.8 19 25.8C23.7 25.8 28.4 25.8 33.2 25.8C33.9 25.8 34.7 25.8 35.4 25.7C40.2 25 44.3 26.2 47.7 29.6C47.8 29.7 47.9 29.8 48.1 30C48.1 24.1 48.1 18.4 48.1 12.5C47.9 12.5 47.7 12.4 47.5 12.4C44.4 12.4 41.3 12.4 38.1 12.4C37.1 12.4 37 12.3 37 11.3C37 8.3 37 5.3 37 2.3C37 1.3 37 1.3 36 1.3C26.9 1.3 17.8 1.3 8.7 1.3C7.1 1.3 6.1 2.3 6.1 4C6.1 21.9 6.1 39.7 6.1 57.6C6.1 59.4 7.1 60.4 8.9 60.4C12.5 60.4 16.2 60.4 19.8 60.4C28.3 60.4 36.8 60.4 45.4 60.4C46.9 60.4 48 59.4 48 57.8C48 56.6 48 55.5 48 54.3C48 54.1 48 53.8 47.9 53.7C47 52.8 46.2 51.9 45.3 51C45.1 51.1 45 51.2 44.9 51.2C38.5 55 30.7 53.4 26.3 47.4C26.1 47.2 25.8 47 25.5 47C23.2 47 21 47 18.7 47C18.2 47 17.7 46.9 17.7 46.3C17.7 45.7 18.2 45.6 18.7 45.6C20.5 45.6 22.2 45.6 24 45.6C24.4 45.6 24.8 45.6 25.2 45.6C24.8 44.5 24.5 43.6 24.2 42.6C24.1 42.1 23.9 42 23.4 42C21.8 42 20.2 42 18.6 42C18.1 42 17.8 41.8 17.8 41.3C17.8 40.8 18.2 40.6 18.6 40.6C19.9 40.6 21.3 40.6 22.6 40.6C23 40.6 23.3 40.6 23.8 40.6C23.7 39.6 23.7 38.5 23.7 37.2ZM43.3 61.9C43.1 61.9 42.9 61.9 42.7 61.9C38 61.9 33.2 61.9 28.5 61.9C22 61.9 15.6 61.9 9.1 61.9C8.5 61.9 7.8 61.8 7.2 61.6C5.5 61 4.7 59.6 4.7 57.6C4.7 40.8 4.7 24 4.7 7.2C4.7 7 4.7 6.7 4.7 6.5C4.7 6.1 4.5 6 4.1 6C2.5 5.9 1.4 7 1.4 8.7C1.4 26.4 1.4 44.1 1.4 61.8C1.4 64 2.3 64.8 4.5 64.8C9.6 64.8 14.7 64.8 19.8 64.8C26.8 64.8 33.8 64.8 40.9 64.8C42.5 64.8 43.5 63.6 43.3 61.9ZM51 50.8C50.1 49.9 49.2 49 48.3 48.1C47.6 47.4 47.6 47.3 48.1 46.4C49.8 43.8 50.5 40.9 50.1 37.8C49.3 31.7 44.3 27.2 38.1 26.9C32 26.7 26.6 30.9 25.4 36.9C24.4 42 26.4 47 30.7 49.9C34.8 52.7 40.4 52.7 44.5 50C45.4 49.4 45.5 49.4 46.2 50.2C47.1 51.1 48.1 52 49 52.8C49.6 52.2 50.3 51.5 51 50.8ZM46.7 11C43.9 8.2 41.1 5.4 38.3 2.6C38.3 5.3 38.3 8.1 38.3 11C41.2 11 44 11 46.7 11ZM55.3 53.7C54.1 54.9 52.9 56 51.8 57.1C52.2 57.5 52.6 58 53 58.4C54.2 57.2 55.4 56.1 56.6 54.9C56.1 54.5 55.6 54 55.3 53.7ZM55.3 60.7C56.5 59.5 57.7 58.3 58.9 57.2C58.5 56.8 58 56.3 57.7 56C56.5 57.2 55.3 58.3 54 59.5C54.5 60 54.9 60.4 55.3 60.7ZM54.2 52.4C54 52.1 53.7 51.9 53.5 51.6C53.1 51.1 52.7 51.1 52.3 51.6C51.7 52.2 51.1 52.9 50.4 53.5C49.1 54.7 49.1 54.8 50.5 55.9C50.5 55.9 50.6 56 50.6 55.9C51.8 54.8 53 53.6 54.2 52.4ZM56.4 62C56.7 62.2 56.9 62.4 57.2 62.6C57.8 63.1 58 63.2 58.5 62.6C59.1 62 59.7 61.4 60.2 60.9C61.5 59.6 61.5 59.6 60.1 58.4C60.1 58.4 60 58.3 60 58.4C58.9 59.6 57.7 60.7 56.4 62Z" fill="#0865F7"/>
<path d="M29.5 22.4001C26 22.4001 22.5 22.4001 19 22.4001C18.7 22.4001 18.5 22.5001 18.3 22.4001C18.1 22.3001 17.8 22.0001 17.7 21.8001C17.7 21.6001 18 21.3001 18.2 21.1001C18.3 21.0001 18.6 21.1001 18.8 21.1001C25.9 21.1001 33.1 21.1001 40.2 21.1001C40.4 21.1001 40.7 21.0001 40.8 21.1001C41 21.3001 41.3 21.5001 41.3 21.8001C41.3 22.0001 41 22.3001 40.8 22.4001C40.6 22.5001 40.4 22.4001 40.1 22.4001C36.6 22.4001 33 22.4001 29.5 22.4001Z" fill="#0865F7"/>
<path d="M13.3 43.8001C12.9 43.8001 12.4 43.8001 12 43.8001C11.2 43.7001 10.6 43.3001 10.6 42.4001C10.5 41.8001 10.5 41.2001 10.6 40.6001C10.7 39.7001 11.3 39.2001 12.1 39.1001C12.9 39.1001 13.7 39.1001 14.6 39.1001C15.6 39.1001 16.1 39.7001 16.2 40.7001C16.2 41.2001 16.2 41.7001 16.2 42.1001C16.2 43.1001 15.5 43.7001 14.6 43.7001C14.1 43.9001 13.7 43.9001 13.3 43.8001ZM14.7 42.5001C14.8 42.3001 14.8 42.3001 14.8 42.3001C14.9 40.6001 14.9 40.6001 13.2 40.6001C11.7 40.6001 12 40.5001 11.9 41.9001C11.9 42.0001 11.9 42.1001 11.9 42.1001C12 42.3001 12.2 42.5001 12.3 42.5001C13.1 42.5001 13.9 42.5001 14.7 42.5001Z" fill="#0865F7"/>
<path d="M13.3 53.8001C13 53.8001 12.6 53.8001 12.3 53.8001C11.1 53.8001 10.5 53.2001 10.5 52.0001C10.5 51.5001 10.5 51.0001 10.5 50.6001C10.6 49.7001 11.2 49.2001 12.1 49.1001C12.9 49.1001 13.7 49.1001 14.5 49.1001C15.5 49.1001 16.1 49.7001 16.1 50.7001C16.1 51.2001 16.1 51.7001 16.1 52.1001C16.1 53.1001 15.4 53.7001 14.4 53.7001C14.1 53.8001 13.7 53.8001 13.3 53.8001ZM13.4 50.5001C11.8 50.5001 11.8 50.5001 12 51.9001C12 52.1001 12.3 52.3001 12.5 52.4001C13 52.5001 13.5 52.4001 14 52.4001C14.7 52.5001 14.9 52.3001 14.9 51.5001C14.8 50.4001 15 50.4001 13.8 50.4001C13.6 50.5001 13.5 50.5001 13.4 50.5001Z" fill="#0865F7"/>
<path d="M13.3 23.9C10.8 23.9 10.5 23.6 10.6 21.1C10.6 19.8 11.2 19.2 12.5 19.2C13.2 19.2 13.9 19.2 14.6 19.2C15.6 19.2 16.2 19.9 16.2 20.9C16.2 21.4 16.2 21.7999 16.2 22.2999C16.2 23.2999 15.5 23.9 14.5 24C14.1 23.9 13.7 23.9 13.3 23.9ZM14.7 22.5C14.7 22.3 14.8 22.2 14.8 22.2C14.8 20.3 15.1 20.6 13.3 20.6C11.9 20.6 11.9 20.6 12 22.1V22.2C12.1 22.3 12.2 22.6 12.4 22.6C13.1 22.6 13.9 22.5 14.7 22.5Z" fill="#0865F7"/>
<path d="M13.4 33.9C13 33.9 12.5 33.9 12.1 33.9C11.3 33.9 10.7 33.3999 10.6 32.5999C10.5 31.8999 10.5 31.3 10.6 30.6C10.7 29.8 11.3 29.3 12.1 29.2C13 29.2 13.8 29.2 14.7 29.2C15.6 29.2 16.2 29.8 16.2 30.7C16.2 31.2 16.2 31.5999 16.2 32.0999C16.2 33.1999 15.6 33.8 14.5 33.9C14.1 33.9 13.7 33.9 13.4 33.9ZM13.4 30.6C11.8 30.6 11.8 30.6 11.9 32C11.9 32.4 12.1 32.5 12.4 32.5C13 32.5 13.6 32.5 14.2 32.5C14.4 32.5 14.6 32.3 14.6 32.2C15 30.8 14.8 30.6 13.4 30.6Z" fill="#0865F7"/>
<path d="M22.4 52.0999C21.1 52.0999 19.8 52.0999 18.6 52.0999C18.1 52.0999 17.7 52 17.7 51.4C17.7 50.8 18.1 50.7 18.6 50.7C21.1 50.7 23.6 50.7 26.1 50.7C26.2 50.7 26.2 50.7 26.3 50.7C26.8 50.7 27.1 50.9 27.1 51.4C27.1 51.9 26.7 52 26.3 52C25 52.1 23.7 52.0999 22.4 52.0999Z" fill="#0865F7"/>
<path d="M47.1 39.5C47.1 44.7 42.9 48.9 37.7 49C32.5 49 28.2 44.7 28.2 39.5C28.2 34.3 32.5 30 37.7 30C42.8 30 47.1 34.3 47.1 39.5ZM37.6 47.6C42 47.6 45.7 44 45.7 39.5C45.7 35.1 42 31.4 37.6 31.4C33.1 31.4 29.5 35 29.5 39.5C29.5 43.9 33.2 47.6 37.6 47.6Z" fill="#0865F7"/>
<path d="M36.6 41.0999C38.1 39.4999 39.5 38.0999 40.9 36.4999C41.2 36.0999 41.5 35.9999 41.9 36.2999C42.3 36.5999 42.2 36.9999 41.9 37.3999C40.3 39.0999 38.7 40.7999 37.1 42.4999C36.7 42.8999 36.3 42.8999 35.9 42.4999C35.2 41.6999 34.6 40.8999 33.9 40.0999C33.6 39.7999 33.6 39.3999 33.9 39.0999C34.3 38.7999 34.7 38.7999 35 39.1999C35.5 39.7999 36 40.3999 36.6 41.0999Z" fill="#0865F7"/>
</svg>
