<svg width="65" height="64" viewBox="0 0 65 64" fill="none" xmlns="http://www.w3.org/2000/svg">
<g clip-path="url(#clip0_9_93)">
<path d="M57.7 47.8C56.2 47.5 54.9 46.9 54.3 45.5C54 44.8 53.8 43.9 53.8 43.1C53.8 39.3 53.8 35.4 53.8 31.6C53.8 29.1 55 27.6 57.4 27C57.5 27 57.5 26.9 57.6 26.9C57.3 15.2 47.1 3.19998 32.5 3.19998C17.7 3.19998 7.6 15.2 7.2 26.9C7.3 27 7.4 27 7.5 27C9.8 27.6 11 29.1 11 31.4C11 34 11 36.6 11 39.2C11 40.5 11 41.8 11 43.2C11 46.5 8.5 48.4 5.3 47.7C2.2 47 0.1 44.4 0 41.1C0 38.6 0 36.1 0 33.6C0 31 1.2 29.1 3.4 27.8C3.8 27.6 4 27.3 4 26.8C5 15.4 10.7 7.09998 21.1 2.39998C32.7 -2.90002 46.8 0.699975 54.7 10.8C58.4 15.5 60.4 20.9 60.8 26.9C60.8 27.3 61 27.6 61.4 27.8C63.7 29.1 64.8 31.1 64.8 33.8C64.8 36.2 64.8 38.7 64.8 41.1C64.8 43.7 63.6 45.8 61.3 47.1C60.9 47.3 60.9 47.5 60.9 47.9C60.9 49.3 61 50.8 60.8 52.2C60.2 57 56.3 60.3 51.5 60.4C50.1 60.4 48.8 60.4 47.4 60.4C47 60.4 46.8 60.5 46.6 60.9C45.7 62.6 44.4 63.5 42.5 63.6C40.8 63.6 39.2 63.6 37.5 63.6C34.9 63.5 32.9 61.5 32.9 58.9C32.9 56.3 34.9 54.2 37.5 54.2C39.2 54.2 40.9 54.1 42.5 54.2C44.4 54.3 45.7 55.2 46.6 56.8C46.8 57.2 47 57.3 47.4 57.3C49.1 57.2 50.8 57.3 52.5 57.2C55.4 56.9 57.6 54.4 57.7 51.5C57.8 50.2 57.7 49 57.7 47.8ZM7.9 37.4C7.9 35.4 7.9 33.5 7.9 31.5C7.9 30.4 7.4 30 6.3 30.1C4.7 30.2 3.2 31.7 3.1 33.3C3 36 3 38.7 3.1 41.4C3.1 43.1 4.5 44.5 6.1 44.7C7.3 44.9 7.9 44.4 7.9 43.2C7.9 41.2 7.9 39.3 7.9 37.4ZM56.9 37.3C56.9 39.2 56.9 41.1 56.9 43C56.9 43.1 56.9 43.1 56.9 43.2C56.9 44.2 57.4 44.7 58.5 44.6C60.3 44.5 61.7 43 61.7 41.2C61.8 38.6 61.7 35.9 61.7 33.3C61.7 31.7 60.4 30.3 58.8 30C57.6 29.7 56.9 30.3 56.9 31.5C56.9 33.5 56.9 35.4 56.9 37.3ZM40 60.3C40.7 60.3 41.5 60.3 42.2 60.3C43.2 60.3 43.9 59.7 43.9 58.8C43.9 57.8 43.3 57.2 42.2 57.2C40.7 57.2 39.1 57.2 37.6 57.2C36.6 57.2 36 57.9 36 58.8C36 59.7 36.7 60.4 37.7 60.4C38.4 60.3 39.2 60.3 40 60.3Z" fill="#0865F7"/>
<path d="M50 28.6C50.1 38.2 42.2 46.1 32.5 46.2C22.8 46.3 14.9 38.4 14.8 28.8C14.7 19 22.5 11.1 32.3 11C42.1 10.9 50 18.8 50 28.6ZM32.4 43.1C40.3 43.1 46.9 36.6 46.9 28.8C46.9 20.6 40.5 14.1 32.4 14.1C24.3 14.1 17.9 20.6 17.9 28.8C17.9 36.7 24.5 43.1 32.4 43.1Z" fill="#0865F7"/>
<path d="M26.1 32.4999C27.3 32.4999 28.4 32.4999 29.6 32.4999C30.7 32.4999 31.4 33.0999 31.4 33.9999C31.4 34.8999 30.7 35.4999 29.6 35.4999C27.6 35.4999 25.6 35.4999 23.5 35.4999C22.2 35.4999 21.6 34.8999 21.7 33.5999C21.8 32.0999 22.6 30.9999 23.7 30.1999C24.6 29.5999 25.6 29.0999 26.5 28.4999C26.9 28.1999 27.4 27.8999 27.7 27.5999C28.3 27.0999 28.3 26.2999 28 25.6999C27.7 25.0999 26.9 24.6999 26.1 24.7999C25.3 24.8999 24.8 25.3999 24.6 26.0999C24.6 26.2999 24.6 26.3999 24.5 26.5999C24.3 27.3999 23.7 27.8999 22.9 27.8999C22.1 27.7999 21.6 27.1999 21.5 26.3999C21.4 23.8999 23.7 21.6999 26.4 21.7999C28.5 21.8999 30.2 22.9999 30.9 24.8999C31.6 26.6999 31 28.6999 29.5 29.9999C28.6 30.7999 27.5 31.2999 26.5 31.9999C26.3 32.0999 26.1 32.1999 25.9 32.3999C26.1 32.3999 26.1 32.3999 26.1 32.4999Z" fill="#0865F7"/>
<path d="M41.5 32.3C41.5 32.9 41.5 33.4 41.5 34C41.5 34.9 40.8 35.6 40 35.6C39.2 35.6 38.5 34.9 38.5 34C38.5 33.5 38.5 32.9 38.5 32.2C37.7 32.2 37 32.2 36.3 32.2C35.6 32.2 34.9 32.2 34.3 32.2C33.2 32.2 32.6 31.4 32.8 30.3C33.3 27.8 33.9 25.3 34.5 22.9C34.7 22.1 35.5 21.6 36.3 21.8C37.1 22 37.6 22.7 37.5 23.6C37.2 25.2 36.8 26.8 36.5 28.5C36.5 28.7 36.4 28.9 36.4 29.2C37.2 29.2 37.9 29.2 38.7 29.2C38.7 28 38.7 26.8 38.7 25.6C38.7 24.9 38.7 24.1 38.7 23.4C38.7 22.5 39.3 21.8 40.2 21.8C41.1 21.8 41.7 22.4 41.7 23.4C41.7 25.1 41.7 26.8 41.7 28.5C41.7 28.9 41.7 29.2 42.3 29.4C43 29.6 43.4 30.2 43.4 30.9C43.4 31.6 43 32.1 42.3 32.3C41.9 32.2 41.7 32.2 41.5 32.3Z" fill="#0865F7"/>
</g>
<defs>
<clipPath id="clip0_9_93">
<rect width="64.9" height="63.4" fill="white"/>
</clipPath>
</defs>
</svg>
