<svg width="67" height="67" viewBox="0 0 67 67" fill="none" xmlns="http://www.w3.org/2000/svg">
<path d="M58.7 33C59 32.7 59.2 32.4 59.5 32.1C60.9 30.6 63.1 30.3 64.7 31.5C66.3 32.8 66.8 35 65.5 36.7C62.9 40.2 60.3 43.7 57.7 47.2C55.5 50.1 53.3 53.1 51.1 56C49.2 58.5 46.4 58.6 44.5 56.1C42.5 53.5 40.5 50.8 38.5 48.1C37.1 46.3 37.5 43.9 39.3 42.6C41 41.4 43.2 41.7 44.6 43.4C45.1 44.1 45.6 44.8 46.2 45.5C46.7 46.2 47.2 46.9 47.8 47.6C48.4 46.8 49 46 49.6 45.3C51.8 42.4 54 39.5 56.1 36.6C56.3 36.3 56.5 35.8 56.5 35.4C56.5 25.1 56.5 14.8 56.5 4.5C56.5 2.8 55.9 2.2 54.2 2.2C39.8 2.2 25.3 2.2 10.9 2.2C8.9 2.2 8.4 2.7 8.4 4.7C8.4 7.6 8.4 10.5 8.4 13.5C8.4 14.3 8 14.8 7.4 14.8C6.8 14.8 6.4 14.3 6.4 13.5C6.4 13.4 6.4 13.3 6.4 13.3C6.4 11.4 6.4 9.5 6.4 7.5C6.4 7.2 6.4 6.8 6.4 6.5C5.4 6.5 4.5 6.4 3.6 6.5C2.6 6.4 2.1 7.2 2.1 8.3C2.1 11.5 2.1 14.7 2.1 17.9C2.1 31.1 2.1 44.3 2.1 57.6C2.1 59.4 2.6 60 4.5 60C5.1 60 5.6 60 6.3 60C6.3 59.5 6.3 59.1 6.3 58.8C6.3 45.6 6.3 32.4 6.3 19.2C6.3 18.8 6.3 18.4 6.3 18C6.3 17.3 6.6 16.9 7.4 16.9C8.1 16.9 8.4 17.4 8.4 18.1C8.4 19.9 8.4 21.7 8.4 23.4C8.4 36.3 8.4 49.2 8.4 62.1C8.4 63.6 9 64.3 10.6 64.3C17 64.3 23.3 64.3 29.7 64.3C37.8 64.3 45.9 64.3 54 64.3C55.9 64.3 56.5 63.7 56.5 61.8C56.5 58.5 56.5 55.3 56.5 52C56.5 51.7 56.4 51.3 56.6 51.1C56.8 50.8 57.2 50.4 57.5 50.4C57.8 50.4 58.2 50.8 58.5 51.1C58.6 51.3 58.6 51.6 58.6 51.9C58.6 55.3 58.6 58.6 58.6 62C58.6 64.8 57.1 66.3 54.3 66.3C39.8 66.3 25.3 66.3 10.8 66.3C8.1 66.3 6.8 65.2 6.4 62.5C6.4 62.4 6.4 62.3 6.3 62.1C5.6 62.1 5 62.1 4.3 62.1C1.6 62 0 60.4 0 57.8C0 41.3 0 24.8 0 8.4C0 5.8 1.6 4.2 4.2 4.2C4.8 4.2 5.5 4.2 6.2 4.2C6.3 3.8 6.3 3.4 6.4 3C6.8 1.4 8.1 0.2 9.8 0C10 0 10.3 0 10.5 0C25.1 0 39.7 0 54.3 0C56.1 0 57.5 0.6 58.2 2.3C58.5 2.9 58.5 3.6 58.5 4.3C58.5 13.5 58.5 22.7 58.5 31.9C58.5 32.2 58.5 32.6 58.5 32.9C58.6 32.9 58.6 32.9 58.7 33ZM47.6 55.8C48.7 55.7 49.2 54.9 49.7 54.2C52.9 49.9 56.1 45.7 59.3 41.4C60.8 39.4 62.3 37.4 63.7 35.5C64.1 34.9 64.3 34.2 63.8 33.6C63.5 33.2 62.9 32.8 62.3 32.7C61.6 32.6 61.1 33.1 60.7 33.6C56.8 38.9 52.8 44.1 48.9 49.4C48 50.6 47.4 50.6 46.5 49.4C45.3 47.8 44.1 46.2 42.9 44.6C42.2 43.7 41.2 43.6 40.4 44.2C39.6 44.8 39.5 45.8 40.1 46.7C42.2 49.5 44.2 52.2 46.3 54.9C46.7 55.4 47.2 55.6 47.6 55.8Z" fill="#0865F7"/>
<path d="M32.4 14.7001C27.5 14.7001 22.6 14.7001 17.7 14.7001C17.5 14.7001 17.4 14.7001 17.2 14.7001C16.5 14.7001 15.9 14.2001 15.9 13.6001C15.9 13.0001 16.4 12.5001 17.2 12.5001C19.4 12.5001 21.6 12.5001 23.8 12.5001C31.5 12.5001 39.2 12.5001 46.9 12.5001C47.3 12.5001 47.7 12.4001 48 12.6001C48.3 12.8001 48.7 13.3001 48.7 13.6001C48.7 14.0001 48.2 14.3001 47.9 14.6001C47.8 14.7001 47.5 14.7001 47.3 14.7001C42.3 14.7001 37.4 14.7001 32.4 14.7001Z" fill="#0865F7"/>
<path d="M28.3 32.0001C31.8 32.0001 35.3 32.0001 38.8 32.0001C39.1 32.0001 39.4 31.9001 39.6 32.1001C39.9 32.4001 40.3 32.8001 40.4 33.1001C40.4 33.4001 40 33.8001 39.7 34.1001C39.5 34.3001 39.1 34.2001 38.7 34.2001C31.7 34.2001 24.7 34.2001 17.7 34.2001C17.5 34.2001 17.2 34.3001 17 34.2001C16.6 33.9001 16.2 33.6001 16.1 33.2001C16 32.6001 16.4 32.2001 17 32.1001C17.2 32.1001 17.5 32.1001 17.7 32.1001C21.3 32.0001 24.8 32.0001 28.3 32.0001Z" fill="#0865F7"/>
<path d="M28.3 28.6C24.8 28.6 21.3 28.6 17.7 28.6C17.4 28.6 17.1 28.7 16.9 28.5C16.6 28.2 16.1 27.9 16.1 27.5C16.1 27.2 16.5 26.8 16.8 26.6C17 26.5 17.3 26.5 17.5 26.5C24.6 26.5 31.8 26.5 38.9 26.5C39.6 26.5 40.2 26.6 40.3 27.4C40.4 28.1 39.9 28.5 39 28.5C35.5 28.6 31.9 28.6 28.3 28.6Z" fill="#0865F7"/>
<path d="M24.8 47.4C27.1 47.4 29.5 47.4 31.8 47.4C32.1 47.4 32.4 47.3 32.6 47.5C32.9 47.8 33.4 48.1 33.4 48.5C33.4 48.8 33 49.2 32.7 49.4C32.5 49.5 32.2 49.5 31.9 49.5C27.2 49.5 22.4 49.5 17.7 49.5C17.5 49.5 17.4 49.5 17.2 49.5C16.6 49.4 16.1 49.1 16.2 48.4C16.2 47.8 16.6 47.5 17.2 47.4C17.4 47.4 17.6 47.4 17.9 47.4C20.1 47.4 22.4 47.4 24.8 47.4Z" fill="#0865F7"/>
<path d="M32.4 18.1C34.8 18.1 37.1 18.1 39.5 18.1C39.7 18.1 40.1 18 40.2 18.2C40.5 18.5 41 18.8 41 19.2C41 19.5 40.6 19.9 40.2 20.2C40 20.3 39.7 20.2999 39.5 20.2999C34.7 20.2999 29.9 20.2999 25.2 20.2999C25 20.2999 24.8 20.2999 24.6 20.2999C24 20.1999 23.7 19.7999 23.7 19.2999C23.7 18.6999 24 18.2999 24.6 18.2999C25.5 18.2999 26.4 18.2999 27.3 18.2999C29 18.0999 30.7 18.1 32.4 18.1Z" fill="#0865F7"/>
<path d="M19.8 55C18.9 55 18.1 55 17.2 55C16.5 55 16.1 54.7 16 54C16 53.5 16.5 53 17.3 53C19 53 20.8 53 22.5 53C23.2 53 23.6 53.3 23.7 54C23.8 54.6 23.3 55.1 22.5 55.1C21.6 55.1 20.7 55 19.8 55Z" fill="#0865F7"/>
<path d="M47 34.2001C46.8 34.2001 46.6 34.2001 46.4 34.2001C45.8 34.1001 45.3 33.8001 45.3 33.2001C45.3 32.5001 45.8 32.2001 46.4 32.1001C46.8 32.1001 47.2 32.1001 47.6 32.1001C48.3 32.1001 48.7 32.5001 48.7 33.2001C48.7 33.9001 48.2 34.2001 47.5 34.2001C47.4 34.2001 47.2 34.2001 47 34.2001Z" fill="#0865F7"/>
<path d="M47.1 28.5999C45.9 28.5999 45.4 28.2999 45.4 27.5999C45.4 26.8999 45.9 26.4999 47.1 26.5999C48.3 26.5999 48.8 26.8999 48.8 27.6999C48.7 28.2999 48.3 28.5999 47.1 28.5999Z" fill="#0865F7"/>
</svg>
