<svg width="64" height="67" viewBox="0 0 64 67" fill="none" xmlns="http://www.w3.org/2000/svg">
<path d="M45.3 61.2001C42.5 60.7001 40 61.8001 37.7 63.7001C37.2 64.1001 36.7 64.4001 36.1 64.8001C33.3 66.7001 30.6 66.7001 27.8 64.8001C26.8 64.1001 25.8 63.4001 24.7 62.6001C23.3 61.6001 21.9 61.1001 20.2 61.1001C18.7 61.1001 17.3 61.1001 15.8 61.0001C13.2 60.9001 11.3 59.6001 10.3 57.2001C9.7 55.7001 9.2 54.1001 8.6 52.6001C8.1 51.2001 7.2 50.0001 6 49.1001C4.8 48.2001 3.6 47.4001 2.5 46.4001C0.299996 44.6001 -0.500004 42.4001 0.299996 39.6001C0.599996 38.5001 0.899996 37.3001 1.3 36.2001C2.1 34.1001 2.1 32.0001 1.3 29.9001C0.899996 28.7001 0.499996 27.4001 0.199996 26.1001C-0.400004 23.7001 0.299996 21.7001 2.2 20.1001C3.4 19.1001 4.6 18.2001 5.9 17.3001C6.9 16.5001 7.8 15.6001 8.4 14.4001C8.7 13.7001 9.2 13.5001 9.8 13.8001C10.3 14.1001 10.5 14.6001 10.2 15.3001C9.6 16.2001 9 17.2001 8.3 17.9001C7.3 18.9001 6.1 19.6001 5 20.5001C4.6 20.8001 4.1 21.2001 3.7 21.5001C2.3 22.7001 1.8 24.2001 2.3 25.9001C2.6 27.0001 2.9 28.1001 3.3 29.2001C4.2 31.7001 4.2 34.3001 3.3 36.8001C2.8 38.1001 2.5 39.4001 2.2 40.7001C1.9 42.1001 2.3 43.2001 3.3 44.2001C4 44.9001 4.8 45.5001 5.6 46.1001C6 46.4001 6.3 46.6001 6.7 46.9001C8.9 48.3001 10.2 50.3001 11 52.8001C11.3 53.9001 11.8 55.0001 12.2 56.1001C12.9 57.9001 14.3 58.8001 16.3 58.9001C17.5 58.9001 18.7 59.0001 19.8 59.0001C22.4 58.9001 24.7 59.7001 26.7 61.3001C27.7 62.1001 28.8 62.8001 29.9 63.5001C31.3 64.4001 32.8 64.4001 34.2 63.5001C35.3 62.8001 36.4 62.1001 37.4 61.4001C39.5 59.8001 41.7 59.0001 44.4 59.0001C45.9 59.0001 47.4 58.9001 48.8 58.8001C50.2 58.7001 51.2 57.9001 51.8 56.6001C52.3 55.4001 52.8 54.1001 53.2 52.8001C53.9 50.3001 55.4 48.3001 57.6 46.8001C58.5 46.2001 59.4 45.5001 60.3 44.8001C61.9 43.5001 62.5 41.9001 61.9 40.0001C61.5 38.7001 61.2 37.5001 60.8 36.2001C60 33.8001 60.2 31.6001 61 29.2001C61.4 27.9001 61.8 26.6001 62.1 25.3001C62.4 23.9001 61.9 22.7001 60.9 21.7001C60.3 21.2001 59.7 20.7001 59.1 20.2001C58.6 19.8001 58.2 19.5001 57.7 19.2001C55.5 17.8001 54.1 15.8001 53.3 13.2001C53 12.0001 52.5 10.9001 52.1 9.8001C51.4 8.0001 50 7.1001 48.1 7.0001C46.9 6.9001 45.7 6.9001 44.5 6.9001C41.9 7.0001 39.6 6.2001 37.6 4.6001C36.7 3.9001 35.7 3.3001 34.8 2.7001C33.1 1.6001 31.4 1.6001 29.7 2.7001C28.4 3.5001 27.1 4.4001 25.9 5.3001C24 6.5001 22.3 7.0001 20.4 7.0001C18.9 7.0001 17.4 7.0001 16 7.1001C14.2 7.2001 12.8 8.0001 12.1 9.7001C12 10.0001 11.8 10.4001 11.7 10.7001C11.4 11.2001 11 11.4001 10.5 11.2001C9.9 11.0001 9.8 10.5001 9.9 10.0001C10.6 7.2001 12.9 5.3001 15.8 5.1001C17.3 5.0001 18.8 5.0001 20.2 5.0001C21.9 5.0001 23.4 4.5001 24.7 3.5001C26.2 2.5001 27.7 1.4001 29.3 0.500102C31 -0.499898 32.9 -0.399898 34.6 0.500102C35.8 1.1001 36.8 1.9001 37.9 2.6001C39.3 3.6001 40.7 4.7001 42.5 4.8001C43.5 4.9001 44.5 4.8001 45.4 4.9001C46.4 4.9001 47.5 4.9001 48.5 5.1001C50.9 5.4001 52.6 6.7001 53.6 8.9001C54.1 10.1001 54.6 11.4001 54.9 12.7001C55.5 14.6001 56.5 16.2001 58.2 17.3001C59.4 18.1001 60.5 19.0001 61.6 19.9001C63.6 21.5001 64.3 23.7001 63.6 26.2001C63.3 27.3001 63 28.4001 62.6 29.5001C61.8 31.7001 61.7 34.0001 62.5 36.2001C62.9 37.3001 63.2 38.4001 63.5 39.5001C64.2 42.1001 63.5 44.3001 61.4 46.0001C60.2 47.0001 58.9 47.9001 57.6 48.8001C56.4 49.7001 55.6 50.8001 55.1 52.2001C54.7 53.3001 54.4 54.4001 54 55.6001C53.8 56.2001 53.5 56.9001 53.2 57.5001C52.2 59.5001 50.4 60.5001 48.2 60.7001C47.4 61.1001 46.4 61.1001 45.3 61.2001Z" fill="#0865F7"/>
<path d="M6.10001 34.1001C6.10001 21.9001 13.7 11.7001 24.4 8.50013C35.4 5.30013 46.9 9.30013 53.4 18.7001C59.9 28.1001 59.2 41.2001 51.6 49.8001C51.1 50.3001 50.6 50.4001 50.1 50.1001C49.6 49.7001 49.6 49.1001 50.2 48.5001C52.9 45.4001 54.6 41.8001 55.4 37.8001C56.7 31.3001 55.5 25.3001 51.7 19.8001C46.7 12.6001 39.6 9.10013 30.9 9.40013C19.4 9.70013 9.70001 18.6001 8.20001 30.1001C6.90001 39.9001 12 49.7001 20.9 54.1001C29.8 58.6001 38.5 57.7001 46.6 51.9001C46.9 51.7001 47.5 51.5001 47.8 51.6001C48.6 51.8001 48.6 52.7001 47.9 53.3001C46.2 54.7001 44.3 55.8001 42.3 56.6001C33.1 60.3001 24.3 59.4001 16.3 53.5001C9.5 48.5001 6.30001 41.5001 6.10001 34.1001Z" fill="#0865F7"/>
<path d="M32.8 15.3001C32.8 16.6001 32.8 17.8001 32.8 18.9001C32.8 19.1001 33.1 19.3001 33.4 19.4001C34.7 19.9001 35.7 20.7001 36.1 22.1001C36.7 24.1001 35.5 26.4001 33.4 27.2001C33 27.4001 32.8 27.5001 32.8 28.0001C32.8 28.9001 32.5 29.3001 31.8 29.3001C31.2 29.3001 30.9 28.9001 30.9 28.0001C30.9 27.9001 30.9 27.7001 30.9 27.7001C30 27.3001 29.1 27.0001 28.3 26.6001C27.6 26.3001 27.5 25.7001 27.8 25.2001C28.1 24.7001 28.6 24.6001 29.3 24.9001C29.8 25.1001 30.3 25.3001 30.9 25.6001C30.9 23.9001 30.9 22.3001 30.9 20.8001C30.9 20.6001 30.7 20.5001 30.6 20.4001C30.3 20.2001 30 20.1001 29.8 19.9001C28.6 19.2001 27.9 18.1001 28.1 16.7001C28.3 15.2001 29 14.2001 30.3 13.6001C30.8 13.4001 31 13.2001 30.9 12.7001C30.9 12.0001 31.3 11.6001 31.8 11.6001C32.4 11.6001 32.8 12.0001 32.7 12.7001C32.7 13.2001 32.9 13.3001 33.3 13.5001C33.8 13.7001 34.4 14.0001 34.9 14.3001C35.4 14.6001 35.4 15.2001 35.1 15.6001C34.8 16.0001 34.3 16.1001 33.8 15.8001C33.5 15.7001 33.2 15.5001 32.8 15.3001ZM32.9 25.3001C33.9 24.8001 34.5 23.8001 34.3 22.8001C34.2 22.0001 33.7 21.5001 32.9 21.4001C32.9 22.7001 32.9 24.0001 32.9 25.3001ZM30.9 18.3001C30.9 17.4001 30.9 16.5001 30.9 15.5001C30.2 15.9001 30 16.5001 30 17.1001C30 17.7001 30.3 18.0001 30.9 18.3001Z" fill="#0865F7"/>
<path d="M19 35.6C19 34.5 19 33.5001 19 32.4001C19 31.6001 19.3 31.3 20.1 31.3C20.8 31.3 21.4 31.3 22.1 31.3C23.8 31.4 24.8 32.9 24.4 34.5C24.3 34.9 24.3 35.1 24.5 35.5C25.2 36.4 25.3 37.4 24.8 38.5C24.3 39.5 23.5 40 22.3 40C21.6 40 20.9 40 20.2 40C19.3 40 19 39.7 19 38.8C19 37.8 19 36.7 19 35.6ZM21 38.1C21.5 38.1 21.9 38.1 22.4 38.1C22.9 38.1 23.2 37.8 23.2 37.3C23.2 36.8 22.9 36.5 22.4 36.5C22 36.5 21.5 36.5 21 36.5C21 37 21 37.5 21 38.1ZM21 33.1C21 33.6 21 34 21 34.5C21.5 34.4 22 34.3 22.4 34.1C22.5 34.1 22.5 33.5 22.4 33.5C22 33.4 21.5 33.3 21 33.1Z" fill="#0865F7"/>
<path d="M27.5 46.3C28 46.9 28.5 47.4 28.9 47.9C29.4 48.5 29.4 49 29 49.4C28.6 49.8 28 49.7 27.5 49.2C26.9 48.6 26.4 47.9 25.6 47.3C25.6 47.7 25.6 48.1 25.6 48.6C25.6 49.3 25.2 49.6 24.7 49.7C24.1 49.7 23.7 49.3 23.7 48.7C23.7 46.5 23.7 44.2 23.7 42C23.7 41.4 24.1 41 24.7 41C25.4 41 26.1 41 26.7 41C28 41.1 29 42 29.2 43.1C29.5 44.3 29 45.4 27.8 46.1C27.8 46.1 27.7 46.2 27.5 46.3ZM25.7 43C25.7 43.5 25.7 44 25.7 44.5C26.3 44.5 26.9 44.7 27.3 44.1C27.4 43.9 27.4 43.5 27.2 43.4C26.9 42.7 26.3 42.9 25.7 43Z" fill="#0865F7"/>
<path d="M35.4 40.0002C34.3 40.0002 33.3 39.6002 32.4 38.8002C32 38.4002 31.9 37.8002 32.3 37.4002C32.7 37.0002 33.3 37.0002 33.8 37.4002C34.3 37.9002 35 38.2002 35.7 38.0002C36 37.9002 36.3 37.6002 36.5 37.4002C36.3 37.2002 36.2 36.8002 35.9 36.7002C35.3 36.4002 34.7 36.2002 34.1 36.0002C32.9 35.5002 32.4 34.6002 32.5 33.5002C32.6 32.4002 33.5 31.6002 34.7 31.4002C35.8 31.2002 36.9 31.5002 37.8 32.2002C38.3 32.6002 38.4 33.1002 38.1 33.6002C37.8 34.1002 37.3 34.1002 36.7 33.8002C36.2 33.6002 35.7 33.4002 35.2 33.4002C35 33.4002 34.7 33.7002 34.5 33.8002C34.7 34.0002 34.8 34.2002 35 34.3002C35.5 34.5002 36.1 34.7002 36.6 34.9002C38 35.5002 38.7 36.7002 38.5 37.9002C38.1 39.1002 36.8 40.1002 35.4 40.0002Z" fill="#0865F7"/>
<path d="M38.1 49.7C36.2 49.7 34.6 48.5 34 46.8C33.4 45.1 33.9 43.1 35.3 42C36.8 40.8 38.8 40.6 40.3 41.6C41.1 42.1 41.2 42.9 40.5 43.3C40.1 43.6 39.7 43.5 39.2 43.2C38.3 42.7 37.4 42.7 36.6 43.3C35.8 43.9 35.4 44.6 35.6 45.6C35.7 46.5 36.2 47.2 37.1 47.5C37.9 47.8 38.7 47.8 39.4 47.1C39.9 46.6 40.5 46.6 40.9 47C41.3 47.4 41.2 48 40.8 48.5C40.1 49.4 39.2 49.7 38.1 49.7Z" fill="#0865F7"/>
<path d="M18.6 46.8C18.6 47.4 18.6 48 18.6 48.6C18.6 49.3 18.2 49.7 17.6 49.7C17 49.7 16.7 49.3 16.7 48.6C16.7 46.4 16.7 44.3 16.7 42.1C16.7 41.3 17.1 41 17.8 41C18.5 41 19.2 41 19.9 41C21.4 41.2 22.5 42.4 22.5 43.9C22.5 45.4 21.4 46.6 19.9 46.7C19.5 46.7 19.1 46.7 18.6 46.8ZM18.6 44.8C19.3 44.8 19.9 45 20.3 44.3C20.4 44 20.4 43.6 20.3 43.3C19.9 42.7 19.3 42.9 18.6 42.9C18.6 43.6 18.6 44.1 18.6 44.8Z" fill="#0865F7"/>
<path d="M44.4 44.4C44.9 44.4 45.4 44.4 45.8 44.4C46.5 44.4 47 44.8 47 45.4C47 46 46.6 46.3 45.8 46.4C45.3 46.4 44.9 46.4 44.4 46.4C44.4 46.9 44.4 47.3 44.4 47.8C45 47.8 45.5 47.8 46 47.8C46.7 47.8 47.2 48.2 47.1 48.8C47.1 49.4 46.7 49.7 45.9 49.7C45.1 49.7 44.3 49.7 43.4 49.7C42.6 49.7 42.2 49.4 42.2 48.6C42.2 46.4 42.2 44.3 42.2 42.1C42.2 41.3 42.6 41 43.3 41C44.1 41 45 41 45.8 41C46.5 41 46.9 41.4 46.9 42C46.9 42.6 46.5 42.9 45.7 43C45.2 43 44.7 43 44.1 43C44.4 43.4 44.4 43.8 44.4 44.4Z" fill="#0865F7"/>
<path d="M28.3 33.2001C28.3 33.7001 28.3 34.1 28.3 34.6C28.8 34.6 29.3 34.6 29.7 34.6C30.4 34.6 30.9 35 30.9 35.6C30.9 36.2 30.5 36.6 29.7 36.6C29.2 36.6 28.8 36.6 28.3 36.6C28.3 37.1 28.3 37.5 28.3 38C28.9 38 29.4 38 29.9 38C30.6 38 31.1 38.4 31.1 39C31.1 39.6 30.7 39.9001 29.9 39.9001C29.1 39.9001 28.2 39.9001 27.4 39.9001C26.7 39.9001 26.3 39.6001 26.3 38.9001C26.3 36.7001 26.3 34.5 26.3 32.3C26.3 31.6 26.6 31.3 27.4 31.3C28.3 31.3 29.2 31.3 30.1 31.3C30.7 31.3 31.1 31.7001 31.1 32.2001C31.1 32.7001 30.7 33.1001 30.1 33.2001C29.8 33.2001 29.5 33.2001 29.2 33.2001C28.9 33.2001 28.7 33.2001 28.3 33.2001Z" fill="#0865F7"/>
<path d="M43 33.3C43 34.6 43 36 43 37.3C43 37.8 43 38.4001 43 38.9001C43 39.7001 42.6 40 42 40C41.4 40 41.1 39.6 41.1 38.8C41.1 37.3 41.1 35.8001 41.1 34.4001C41.1 34.0001 41.1 33.7 41.1 33.3C40.8 33.3 40.5 33.3001 40.2 33.2001C39.6 33.1001 39.3 32.8001 39.3 32.2001C39.3 31.6001 39.7 31.3 40.3 31.3C41.6 31.3 42.8 31.3 44.1 31.3C44.6 31.3 45 31.6001 45 32.2001C45 32.8001 44.8 33.1001 44.2 33.2001C43.8 33.2001 43.4 33.2 43 33.3Z" fill="#0865F7"/>
<path d="M32.5 45.4C32.5 46.4 32.5 47.5 32.5 48.5C32.5 49.3 32.1 49.7 31.5 49.7C30.9 49.7 30.6 49.3 30.6 48.5C30.6 46.4 30.6 44.3 30.6 42.2C30.6 41.4 31 41 31.6 41C32.2 41 32.5 41.4 32.6 42.2C32.5 43.3 32.5 44.3 32.5 45.4Z" fill="#0865F7"/>
</svg>
